HIERARCHY
ROOT Hips
{
	OFFSET 54.772701 8.375010 57.437698
	CHANNELS 6 Xposition Yposition Zposition Xrotation Yrotation Zrotation
	JOINT spine
	{
		OFFSET 0.000000 -0.393701 6.846367
		CHANNELS 3 Xrotation Yrotation Zrotation
		JOINT spine1
		{
			OFFSET 0.000000 -0.000001 9.496208
			CHANNELS 3 Xrotation Yrotation Zrotation
			JOINT spine2
			{
				OFFSET 0.000000 -0.000001 9.099091
				CHANNELS 3 Xrotation Yrotation Zrotation
				JOINT Neck
				{
					OFFSET 0.000000 -1.113784 23.361198
					CHANNELS 3 Xrotation Yrotation Zrotation
					JOINT Head
					{
						OFFSET 0.000000 -0.000001 7.058022
						CHANNELS 3 Xrotation Yrotation Zrotation
						End Site
						{
							OFFSET 0.000000 5.634188 17.084396
						}
					}
				}
				JOINT RightShoulder
				{
					OFFSET -3.831360 0.533489 9.826309
					CHANNELS 3 Xrotation Yrotation Zrotation
					JOINT RightArm
					{
						OFFSET 0.000000 -0.000002 12.888100
						CHANNELS 3 Xrotation Yrotation Zrotation
						JOINT RightArmRoll
						{
							OFFSET 0.000000 -0.000001 6.506172
							CHANNELS 3 Xrotation Yrotation Zrotation
							JOINT RightForeArm
							{
								OFFSET 0.000000 -0.000003 18.950104
								CHANNELS 3 Xrotation Yrotation Zrotation
								JOINT RightForeArmRoll
								{
									OFFSET 0.000000 -0.000002 7.300934
									CHANNELS 3 Xrotation Yrotation Zrotation
									JOINT RightHand
									{
										OFFSET 0.000000 -0.000002 14.651398
										CHANNELS 3 Xrotation Yrotation Zrotation
										End Site
										{
											OFFSET 0.000000 0.000000 0.100006
										}
									}
								}
							}
						}
					}
				}
				JOINT LeftShoulder
				{
					OFFSET 3.831360 0.533489 9.826309
					CHANNELS 3 Xrotation Yrotation Zrotation
					JOINT LeftArm
					{
						OFFSET 0.000000 -0.000002 12.888100
						CHANNELS 3 Xrotation Yrotation Zrotation
						JOINT LeftArmRoll
						{
							OFFSET 0.000000 -0.000001 6.506172
							CHANNELS 3 Xrotation Yrotation Zrotation
							JOINT LeftForeArm
							{
								OFFSET 0.000000 -0.000003 18.950104
								CHANNELS 3 Xrotation Yrotation Zrotation
								JOINT LeftForeArmRoll
								{
									OFFSET 0.000000 -0.000002 7.300934
									CHANNELS 3 Xrotation Yrotation Zrotation
									JOINT LeftHand
									{
										OFFSET 0.000000 -0.000002 14.651398
										CHANNELS 3 Xrotation Yrotation Zrotation
										End Site
										{
											OFFSET 0.000000 0.000000 0.100006
										}
									}
								}
							}
						}
					}
				}
			}
		}
	}
	JOINT RightUpLeg
	{
		OFFSET -6.068371 0.933477 -1.112782
		CHANNELS 3 Xrotation Yrotation Zrotation
		JOINT RightUpLegRoll
		{
			OFFSET 0.000000 -0.000003 17.179600
			CHANNELS 3 Xrotation Yrotation Zrotation
			JOINT RightLeg
			{
				OFFSET 0.000000 0.000004 -21.274300
				CHANNELS 3 Xrotation Yrotation Zrotation
				JOINT RightLegRoll
				{
					OFFSET 0.000000 -0.000004 21.343903
					CHANNELS 3 Xrotation Yrotation Zrotation
					JOINT RightFoot
					{
						OFFSET 0.000000 -0.000003 17.765198
						CHANNELS 3 Xrotation Yrotation Zrotation
						JOINT RightToeBase
						{
							OFFSET 0.000000 -0.000002 14.850800
							CHANNELS 3 Xrotation Yrotation Zrotation
							End Site
							{
								OFFSET 0.006294 0.829003 7.192139
							}
						}
					}
				}
			}
		}
	}
	JOINT LeftUpLeg
	{
		OFFSET 6.068371 0.933477 -1.112782
		CHANNELS 3 Xrotation Yrotation Zrotation
		JOINT LeftUpLegRoll
		{
			OFFSET 0.000000 -0.000003 17.179699
			CHANNELS 3 Xrotation Yrotation Zrotation
			JOINT LeftLeg
			{
				OFFSET 0.000000 -0.000003 21.274200
				CHANNELS 3 Xrotation Yrotation Zrotation
				JOINT LeftLegRoll
				{
					OFFSET 0.000000 -0.000004 21.541199
					CHANNELS 3 Xrotation Yrotation Zrotation
					JOINT LeftFoot
					{
						OFFSET 0.000000 -0.000003 17.567894
						CHANNELS 3 Xrotation Yrotation Zrotation
						JOINT LeftToeBase
						{
							OFFSET 0.000000 -0.000002 14.850800
							CHANNELS 3 Xrotation Yrotation Zrotation
							End Site
							{
								OFFSET -0.028210 0.829002 7.192139
							}
						}
					}
				}
			}
		}
	}
}
MOTION
Frames: 13
Frame Time: 0.041667
56.463104 -35.215412 91.777908 -2.742891 -0.862958 -0.897442 -1.871211 -0.057611 -0.114703 0.260322 -0.084991 -0.228753 1.905381 -0.087725 -0.227717 28.712490 4.015055 0.438140 -10.385102 -1.855441 0.667045 28.400131 -71.244365 29.437528 -50.990070 -107.578956 -40.594478 0.000003 -0.000007 -0.000002 3.374612 -13.067285 -0.179722 0.000001 -0.000004 -2.999989 -5.000259 -7.998713 0.000163 5.280833 67.254721 -4.948700 -43.117058 117.083171 21.249434 -0.000002 0.000004 0.000002 0.086286 10.045788 0.942008 -0.000002 0.000004 3.121320 -5.000228 7.998822 -0.000155 -1.566193 -174.947892 1.742553 -179.999991 0.000005 -1.079998 173.888079 -2.578275 -0.323984 0.000003 0.000001 0.062347 68.785039 6.904961 2.114274 25.456957 -7.355613 0.000001 2.457067 177.076698 0.700021 -0.000005 -0.000004 -1.138580 -4.949258 1.646331 0.210344 0.000001 0.000001 -0.041193 68.753900 -6.921087 -2.070553 25.456959 7.355614 -0.000001 
56.464603 -35.202110 91.775597 -2.733687 -0.857312 -0.886913 -1.865231 -0.058904 -0.116510 0.272274 -0.089564 -0.230620 1.917331 -0.092320 -0.229530 28.732024 4.045377 0.435157 -10.420959 -1.878744 0.665931 28.458649 -71.225062 29.504846 -50.945753 -107.593231 -40.563356 -0.000001 -0.000007 -0.000002 3.357438 -13.076392 -0.180195 -0.000000 -0.000004 -2.999990 -5.000258 -7.998709 0.000163 5.323046 67.261866 -4.994843 -43.175070 117.087884 21.333843 -0.000001 0.000004 0.000001 0.086284 10.067289 0.941876 0.000000 0.000004 3.121320 -5.000230 7.998822 -0.000156 -1.585873 -174.958916 1.731774 -179.999991 0.000005 -1.079998 173.887355 -2.573300 -0.323485 0.000003 0.000001 0.062166 68.777662 6.904968 2.114237 25.456953 -7.355613 0.000001 2.428035 177.064622 0.691290 -0.000005 -0.000004 -1.138260 -4.960608 1.652938 0.210732 0.000001 0.000001 -0.041174 68.756004 -6.921074 -2.070720 25.456959 7.355615 -0.000000 
56.451305 -35.187412 91.778709 -2.725152 -0.851488 -0.876174 -1.859264 -0.060221 -0.118419 0.284201 -0.094253 -0.232567 1.929262 -0.097031 -0.231422 28.752487 4.076161 0.432189 -10.457327 -1.902373 0.664880 28.520083 -71.205904 29.575231 -50.900042 -107.606973 -40.529646 -0.000002 -0.000007 -0.000002 3.339255 -13.084914 -0.180827 0.000002 -0.000003 -2.999991 -5.000259 -7.998710 0.000163 5.367257 67.269918 -5.043072 -43.232034 117.092255 21.415723 0.000002 0.000004 0.000002 0.086279 10.087690 0.941679 0.000000 0.000003 3.121319 -5.000227 7.998823 -0.000156 -1.604161 -174.968956 1.721026 -179.999991 0.000005 -1.079998 173.887450 -2.569335 -0.324052 0.000003 0.000001 0.061979 68.770067 6.904961 2.114109 25.456957 -7.355615 0.000001 2.400022 177.051576 0.682209 -0.000005 -0.000004 -1.137970 -4.971810 1.659645 0.211092 0.000001 0.000001 -0.041145 68.758107 -6.921064 -2.071086 25.456957 7.355613 0.000000 
56.462402 -35.173111 91.872200 -2.717095 -0.845537 -0.865287 -1.853299 -0.061553 -0.120397 0.296107 -0.099022 -0.234569 1.941173 -0.101825 -0.233366 28.773572 4.107270 0.429228 -10.493898 -1.926220 0.663860 28.583401 -71.186820 29.647631 -50.855536 -107.619650 -40.496434 0.000001 -0.000007 -0.000002 3.320381 -13.092945 -0.181574 0.000003 -0.000005 -2.999990 -5.000255 -7.998709 0.000163 5.412868 67.278620 -5.092770 -43.289496 117.095575 21.497266 -0.000002 0.000004 0.000001 0.086272 10.107488 0.941435 0.000001 0.000005 3.121319 -5.000227 7.998823 -0.000155 -1.621456 -174.980007 1.710369 -179.999991 0.000004 -1.079998 173.888147 -2.564366 -0.323489 0.000003 0.000001 0.061787 68.762260 6.904976 2.114098 25.456957 -7.355614 0.000002 2.372728 177.039541 0.672958 -0.000005 -0.000004 -1.137690 -4.982902 1.666422 0.211431 0.000001 0.000001 -0.041110 68.760320 -6.921056 -2.071346 25.456959 7.355614 0.000000 
56.453606 -35.155415 91.859207 -2.709300 -0.839511 -0.854314 -1.847353 -0.062894 -0.122415 0.308002 -0.103840 -0.236602 1.953073 -0.106666 -0.235341 28.795080 4.138559 0.426259 -10.530666 -1.950207 0.662835 28.647605 -71.167682 29.720974 -50.810259 -107.632027 -40.462003 0.000001 -0.000007 -0.000002 3.301108 -13.100875 -0.182377 0.000001 -0.000004 -2.999990 -5.000260 -7.998713 0.000163 5.459372 67.287766 -5.143398 -43.346611 117.098812 21.577795 0.000001 0.000004 0.000002 0.086265 10.126787 0.941166 -0.000002 0.000004 3.121320 -5.000229 7.998821 -0.000156 -1.638207 -174.991045 1.699736 -179.999991 0.000005 -1.079998 173.889185 -2.559400 -0.323923 0.000003 0.000001 0.061592 68.754358 6.904981 2.113995 25.456957 -7.355613 0.000001 2.345836 177.026482 0.663547 -0.000005 -0.000004 -1.137420 -4.993924 1.673228 0.211760 0.000001 0.000001 -0.041071 68.762526 -6.921050 -2.071708 25.456959 7.355613 0.000000 
56.447502 -35.135117 91.782600 -2.701577 -0.833465 -0.843324 -1.841400 -0.064237 -0.124441 0.319896 -0.108668 -0.238640 1.964964 -0.111519 -0.237321 28.816701 4.169891 0.423265 -10.567441 -1.974226 0.661792 28.712029 -71.148571 29.794556 -50.762591 -107.645059 -40.424905 0.000001 -0.000007 -0.000002 3.281726 -13.108712 -0.183207 0.000000 -0.000004 -2.999990 -5.000256 -7.998713 0.000162 5.506069 67.296904 -5.194229 -43.404875 117.101285 21.659561 -0.000002 0.000004 0.000003 0.086257 10.146089 0.940888 0.000000 0.000003 3.121318 -5.000229 7.998819 -0.000156 -1.654809 -175.002082 1.689123 -179.999991 0.000005 -1.079001 173.890305 -2.554434 -0.323341 0.000003 0.000001 0.061396 68.746551 6.904958 2.113976 25.456959 -7.355613 0.000001 2.319058 177.013450 0.654118 -0.000005 -0.000004 -1.137160 -5.004927 1.680054 0.212088 0.000001 0.000001 -0.041031 68.764767 -6.921081 -2.071973 25.456955 7.355614 -0.000001 
56.451004 -35.117214 91.813400 -2.693710 -0.827451 -0.832377 -1.835452 -0.065577 -0.126448 0.331793 -0.113476 -0.240660 1.976864 -0.116351 -0.239284 28.838025 4.201136 0.420258 -10.604219 -1.998170 0.660701 28.775631 -71.129317 29.867270 -50.717846 -107.657612 -40.391102 0.000002 -0.000007 -0.000002 3.262551 -13.116745 -0.184005 0.000002 -0.000005 -2.999989 -5.000258 -7.998712 0.000163 5.552417 67.305941 -5.244700 -43.461945 117.104563 21.740267 -0.000001 0.000004 0.000001 0.086249 10.165589 0.940625 -0.000000 0.000004 3.121320 -5.000229 7.998823 -0.000156 -1.671696 -175.013120 1.678502 -179.999991 0.000005 -1.079001 173.891261 -2.549454 -0.323763 0.000003 0.000001 0.061202 68.738655 6.904994 2.113876 25.456959 -7.355615 0.000001 2.292068 177.000391 0.644765 -0.000005 -0.000005 -1.136890 -5.015969 1.686859 0.212426 0.000001 0.000001 -0.040992 68.766973 -6.921074 -2.072233 25.456959 7.355615 -0.000001 
56.443504 -35.094707 91.782303 -2.685519 -0.821522 -0.821539 -1.829492 -0.066906 -0.128406 0.343705 -0.118226 -0.242638 1.988775 -0.121124 -0.241205 28.859059 4.232143 0.417190 -10.640697 -2.021953 0.659549 28.837762 -71.110069 29.938434 -50.673839 -107.670405 -40.358628 0.000002 -0.000007 -0.000002 3.243866 -13.124967 -0.184740 0.000001 -0.000005 -2.999989 -5.000257 -7.998713 0.000163 5.597783 67.314403 -5.294145 -43.518328 117.108866 21.820848 0.000001 0.000004 0.000001 0.086247 10.185490 0.940397 0.000001 0.000002 3.121319 -5.000227 7.998823 -0.000155 -1.689277 -175.023160 1.667827 -179.999991 0.000005 -1.079001 173.891780 -2.544485 -0.323208 0.000003 0.000001 0.061011 68.730957 6.904974 2.113855 25.456957 -7.355613 0.000001 2.264567 176.987345 0.635588 -0.000005 -0.000004 -1.136610 -5.027081 1.693613 0.212783 0.000001 0.000001 -0.040959 68.769090 -6.921096 -2.072506 25.456957 7.355613 -0.000000 
56.434303 -35.067017 91.788605 -2.676780 -0.815731 -0.810873 -1.823521 -0.068218 -0.130282 0.355639 -0.122885 -0.244549 2.000714 -0.125806 -0.243060 28.879279 4.262783 0.414071 -10.676982 -2.045484 0.658290 28.897492 -71.090726 30.007073 -50.628962 -107.684366 -40.326110 0.000001 -0.000007 -0.000002 3.225986 -13.133581 -0.185363 0.000002 -0.000005 -2.999990 -5.000259 -7.998711 0.000163 5.641571 67.321999 -5.341945 -43.575535 117.113497 21.903561 0.000001 0.000004 0.000002 0.086240 10.206288 0.940217 0.000000 0.000004 3.121319 -5.000230 7.998822 -0.000157 -1.707979 -175.034198 1.657131 -179.999991 0.000005 -1.079001 173.891630 -2.540518 -0.323787 0.000003 0.000001 0.060825 68.723458 6.904965 2.113721 25.456957 -7.355615 0.000001 2.236244 176.975310 0.626721 -0.000005 -0.000005 -1.136310 -5.038334 1.700288 0.213167 0.000001 0.000001 -0.040933 68.771194 -6.921084 -2.072872 25.456957 7.355613 0.000000 
56.430504 -35.046917 91.787704 -2.667309 -0.810131 -0.800445 -1.817540 -0.069506 -0.132047 0.367602 -0.127417 -0.246369 2.012675 -0.130360 -0.244826 28.898489 4.292902 0.410911 -10.712763 -2.068649 0.656908 28.953814 -71.071151 30.072090 -50.586092 -107.699038 -40.296921 0.000000 -0.000007 -0.000002 3.209196 -13.142875 -0.185824 0.000003 -0.000003 -2.999990 -5.000258 -7.998714 0.000162 5.683166 67.328562 -5.387456 -43.632372 117.119275 21.987335 0.000001 0.000004 0.000003 0.086238 10.228087 0.940111 -0.000002 0.000003 3.121319 -5.000229 7.998822 -0.000155 -1.728218 -175.044238 1.646360 -179.999991 0.000004 -1.079001 173.890565 -2.535541 -0.323304 0.000003 0.000001 0.060647 68.716095 6.904996 2.113685 25.456957 -7.355614 0.000001 2.206800 176.962251 0.618184 -0.000005 -0.000004 -1.135970 -5.049755 1.706863 0.213591 0.000000 0.000001 -0.040918 68.773188 -6.921064 -2.073141 25.456957 7.355614 -0.000000 
56.436104 -35.018810 91.781898 -2.656892 -0.804774 -0.790318 -1.811542 -0.070764 -0.133671 0.379602 -0.131790 -0.248074 2.024675 -0.134753 -0.246479 28.916473 4.322376 0.407679 -10.748045 -2.091349 0.655393 29.006225 -71.051541 30.132981 -50.543007 -107.715102 -40.269050 0.000001 -0.000007 -0.000002 3.193798 -13.152854 -0.186088 -0.000001 -0.000005 -2.999990 -5.000258 -7.998711 0.000163 5.721920 67.333610 -5.430000 -43.689336 117.126392 22.073320 -0.000001 0.000004 0.000001 0.086235 10.251390 0.940096 -0.000001 0.000004 3.121320 -5.000227 7.998821 -0.000156 -1.750407 -175.054292 1.635507 -179.999991 0.000005 -1.079001 173.888283 -2.530559 -0.323869 0.000003 0.000001 0.060477 68.709039 6.905011 2.113728 25.456953 -7.355614 0.000001 2.175929 176.950203 0.610152 -0.000005 -0.000004 -1.135600 -5.061408 1.713287 0.214060 0.000001 0.000001 -0.040915 68.775094 -6.921073 -2.073425 25.456960 7.355613 -0.000000 
56.433304 -34.997410 91.783310 -2.645336 -0.799712 -0.780557 -1.805512 -0.071984 -0.135124 0.391649 -0.135967 -0.249640 2.036726 -0.138948 -0.247995 28.932937 4.351054 0.404373 -10.782721 -2.113498 0.653707 29.053524 -71.031652 30.188466 -50.500646 -107.732867 -40.243785 -0.000002 -0.000007 -0.000002 3.180084 -13.163803 -0.186103 0.000002 -0.000003 -2.999990 -5.000258 -7.998712 0.000163 5.757284 67.337059 -5.469003 -43.745405 117.135695 22.160571 0.000003 0.000004 0.000001 0.086239 10.276288 0.940189 0.000000 0.000003 3.121320 -5.000228 7.998822 -0.000155 -1.774981 -175.064360 1.624557 -179.999991 0.000004 -1.078003 173.884609 -2.525570 -0.323499 0.000003 0.000001 0.060319 68.702394 6.905016 2.113745 25.456957 -7.355615 0.000002 2.143316 176.939151 0.602723 -0.000005 -0.000004 -1.135180 -5.073330 1.719561 0.214589 0.000001 0.000001 -0.040929 68.776781 -6.921070 -2.073718 25.456959 7.355614 -0.000000 
56.425804 -34.969112 91.779007 -2.632445 -0.794997 -0.771225 -1.799462 -0.073161 -0.136377 0.403750 -0.139913 -0.251043 2.048826 -0.142911 -0.249350 28.947455 4.378815 0.400994 -10.816595 -2.134997 0.651837 29.094991 -71.011510 30.237777 -50.461762 -107.751862 -40.224394 0.000001 -0.000007 -0.000002 3.168379 -13.175936 -0.185818 -0.000002 -0.000005 -2.999990 -5.000258 -7.998710 0.000163 5.788587 67.338446 -5.503764 -43.802092 117.146514 22.251455 -0.000001 0.000004 0.000002 0.086243 10.303288 0.940413 -0.000001 0.000003 3.121320 -5.000230 7.998821 -0.000155 -1.802338 -175.073431 1.613476 -179.999991 0.000005 -1.078003 173.879199 -2.520573 -0.324203 0.000003 0.000001 0.060173 68.696185 6.905048 2.113740 25.456953 -7.355615 0.000002 2.108658 176.928073 0.595956 -0.000005 -0.000004 -1.134700 -5.085572 1.725634 0.215184 0.000001 0.000001 -0.040961 68.778345 -6.921023 -2.074011 25.456962 7.355613 -0.000000 
